<?xml version="1.0" encoding="UTF-8"?>
<!-- Created with Inkscape (http://www.inkscape.org/) -->
<svg width="102.42mm" height="36.715mm" version="1.1" viewBox="0 0 102.42 36.715" xmlns="http://www.w3.org/2000/svg" xmlns:cc="http://creativecommons.org/ns#" xmlns:dc="http://purl.org/dc/elements/1.1/" xmlns:rdf="http://www.w3.org/1999/02/22-rdf-syntax-ns#">
 <defs>
  <clipPath id="clipPath4246">
   <path d="M 0,566.93 H 566.93 V 0 H 0 Z"/>
  </clipPath>
 </defs>
 <metadata>
  <rdf:RDF>
   <cc:Work rdf:about="">
    <dc:format>image/svg+xml</dc:format>
    <dc:type rdf:resource="http://purl.org/dc/dcmitype/StillImage"/>
    <dc:title/>
   </cc:Work>
  </rdf:RDF>
 </metadata>
 <g transform="translate(-26.814 -97.161)">
  <g transform="matrix(.35278 0 0 -.35278 -21.958 221.14)">
   <g clip-path="url(#clipPath4246)">
    <g transform="translate(157.54 351.43)">
     <path d="m0 0h55.844l-20.379-9.647v-8.553h-4.824v8.553h-5.291v-8.553h-4.976v8.553z" fill="#fff" fill-rule="evenodd"/>
    </g>
    <g transform="translate(157.54 248.45)">
     <path d="m0 0h55.844l-20.379 9.646v8.554h-4.824v-8.554h-5.291v8.554h-4.976v-8.554z" fill="#fff" fill-rule="evenodd"/>
    </g>
    <g transform="translate(138.25 326.69)">
     <path d="m0 0 9.643-20.376h8.556v-4.821h-8.556v-5.292h8.556v-4.979h-8.556l-9.643-18.198z" fill="#fff" fill-rule="evenodd"/>
    </g>
    <g transform="translate(232.67 326.69)">
     <path d="m0 0-9.643-20.376h-8.556v-4.821h8.556v-5.292h-8.556v-4.979h8.556l9.643-18.198z" fill="#fff" fill-rule="evenodd"/>
    </g>
    <g transform="translate(157.03 332.65)">
     <path d="m0 0v-55.267c0-3.987 6.832-10.158 11.246-10.158h14.617c0.873 0 1.955-0.724 2.617-1.508 0.587 0.772 1.583 1.508 2.674 1.508h14.468c4.52 0 11.246 6.076 11.246 10.158v55.267zm29.088-68.186-1.153 4e-3c-0.068 0.355-1.281 1.603-2.072 1.603h-14.617c-5.099 0-12.4 6.66-12.4 11.312v56.42h59.175v-56.42c0-4.652-7.3-11.312-12.399-11.312h-14.468c-1.088 0-2.039-1.282-2.066-1.607" fill="#fff"/>
    </g>
    <g transform="translate(186.62 294.83)">
     <path d="m0 0c-1.975 0-3.707 1.517-3.707 3.246 0 1.16 0.94 2.323 1.82 3.024 0.124 0.098 0.306 0.078 0.406-0.047 0.099-0.124 0.078-0.305-0.047-0.405-0.739-0.589-1.602-1.616-1.602-2.572 0-1.422 1.463-2.669 3.13-2.669 1.847 0 3.293 1.239 3.293 2.821 0 2.434-3.398 5.489-4.459 5.793-0.152 0.044-0.241 0.205-0.197 0.356 0.043 0.154 0.199 0.248 0.357 0.198 1.142-0.326 4.876-3.507 4.876-6.347 0-1.905-1.7-3.398-3.87-3.398" fill="#fff"/>
    </g>
    <g transform="translate(186.78 295.45)">
     <path d="m0 0c-0.041 0-0.083 0.01-0.123 0.027-1.525 0.717-2.33 1.396-2.608 2.199-0.208 0.599-0.115 1.26 0.294 2.08 0.143 0.355 0.329 0.632 0.478 0.853 0.173 0.258 0.272 0.411 0.272 0.572 0 0.16 0.128 0.29 0.288 0.29 0.159 0 0.289-0.13 0.289-0.29 0-0.344-0.18-0.611-0.37-0.893-0.142-0.21-0.302-0.448-0.431-0.77-0.349-0.701-0.431-1.204-0.276-1.653 0.222-0.635 0.956-1.229 2.31-1.864 0.144-0.069 0.206-0.24 0.138-0.385-0.049-0.104-0.153-0.166-0.261-0.166" fill="#fff"/>
    </g>
    <g transform="translate(187.09 295.45)">
     <path d="m0 0c-0.092 0-0.183 0.044-0.238 0.127-0.09 0.132-0.056 0.31 0.076 0.4 1.009 0.686 1.545 1.359 1.639 2.056 0.147 1.098-0.82 2.229-1.843 3.425-0.434 0.507-0.883 1.032-1.269 1.58-0.091 0.13-0.06 0.309 0.07 0.401s0.31 0.061 0.402-0.07c0.37-0.523 0.81-1.039 1.235-1.537 1.11-1.297 2.158-2.522 1.976-3.875-0.116-0.87-0.733-1.674-1.885-2.457-0.05-0.033-0.106-0.05-0.163-0.05" fill="#fff"/>
    </g>
    <g transform="translate(186.94 295.91)">
     <path d="m0 0c-0.062 0-0.125 0.021-0.178 0.062-0.125 0.098-0.147 0.28-0.049 0.405 1.404 1.791 0.546 3.204-0.447 4.841-0.119 0.197-0.239 0.394-0.355 0.593-0.081 0.138-0.034 0.315 0.103 0.395 0.136 0.081 0.314 0.036 0.395-0.104 0.114-0.196 0.233-0.391 0.35-0.585 1.012-1.668 2.058-3.39 0.408-5.497-0.057-0.072-0.142-0.11-0.227-0.11" fill="#fff"/>
    </g>
    <g transform="translate(186.47 295.91)">
     <path d="m0 0c-0.055 0-0.111 0.016-0.16 0.048-1.585 1.057-1.208 3.736-0.735 5.152 0.051 0.152 0.215 0.232 0.365 0.183 0.151-0.051 0.233-0.214 0.183-0.365-0.392-1.174-0.791-3.624 0.507-4.49 0.132-0.088 0.169-0.266 0.08-0.4-0.056-0.083-0.147-0.128-0.24-0.128" fill="#fff"/>
    </g>
    <g transform="translate(242.12 327.27)">
     <path d="m0 0h7.456v-18.167c0-1.748 0.361-3.061 1.084-3.941s1.802-1.321 3.237-1.321c1.496 0 2.676 0.488 3.536 1.461 0.861 0.971 1.291 2.312 1.291 4.025v15.765h-2.177v2.178h7.453v-23.768h2.18v-2.178h-7.271l-0.148 2.628c-1.006-1.053-2.087-1.844-3.244-2.37-1.155-0.525-2.403-0.791-3.744-0.791-2.448 0-4.306 0.686-5.573 2.055-1.268 1.37-1.902 3.38-1.902 6.032v16.214h-2.178z" fill="#fff"/>
    </g>
    <g transform="translate(269.6 309.12)">
     <path d="m0 0v13.736l-1.695-0.464v1.799l6.155 1.822h0.225l-0.038-3.081c1.297 1.071 2.499 1.869 3.605 2.393 1.106 0.523 2.136 0.786 3.087 0.786 1.607 0 2.886-0.501 3.837-1.501 0.953-0.998 1.428-2.356 1.428-4.069v-11.421h1.694v-1.841h-8.085v1.841h1.744v10.848c0 0.926-0.235 1.631-0.702 2.121-0.468 0.484-1.145 0.729-2.031 0.729-0.725 0-1.492-0.184-2.299-0.556-0.805-0.37-1.566-0.882-2.278-1.535v-11.607h1.743v-1.841h-8.085v1.841z" fill="#fff"/>
    </g>
    <g transform="translate(290.67 329.94)">
     <path d="m0 0c0 0.703 0.258 1.314 0.776 1.834 0.519 0.517 1.143 0.776 1.87 0.776 0.741 0 1.364-0.253 1.87-0.758 0.505-0.506 0.76-1.123 0.76-1.852 0-0.728-0.259-1.354-0.779-1.88-0.518-0.524-1.135-0.786-1.851-0.786-0.704 0-1.32 0.27-1.852 0.807-0.529 0.536-0.794 1.156-0.794 1.859m5.072-3.827h0.204c-0.055-0.52-0.092-1.003-0.114-1.452-0.021-0.45-0.031-0.867-0.031-1.248v-14.291h1.742v-1.841h-8.084v1.841h1.693v13.773l-1.693-0.461v1.773z" fill="#fff"/>
    </g>
    <g transform="translate(313.01 322.32)">
     <path d="m0 0c-0.199-0.147-0.405-0.253-0.613-0.319-0.211-0.068-0.477-0.101-0.798-0.101-0.385 0-1.048 0.136-1.989 0.41-0.94 0.275-1.621 0.412-2.042 0.412-0.545 0-1.075-0.15-1.588-0.453-0.514-0.3-1.013-0.752-1.494-1.355l3.987-9.447zm-10.34 3.792c0.111-0.595 0.271-1.208 0.481-1.841 0.209-0.631 0.462-1.282 0.759-1.951 1.077 1.411 1.994 2.379 2.748 2.906 0.756 0.526 1.569 0.787 2.435 0.787 0.58 0 1.399-0.12 2.451-0.362 1.053-0.241 1.81-0.363 2.269-0.363 0.321 0 0.625 0.045 0.908 0.134 0.285 0.087 0.613 0.244 0.986 0.469l0.799-0.771c-0.31-0.514-0.706-1.331-1.19-2.457-0.087-0.238-0.156-0.413-0.204-0.527l-5.004-11.918c-0.198-0.506-0.372-1.001-0.521-1.478-0.15-0.476-0.279-0.962-0.391-1.46h-3.726c-0.15 0.596-0.441 1.384-0.873 2.361-0.051 0.124-0.087 0.212-0.111 0.262l-5.467 12.452-1.519-0.642-0.648 1.445z" fill="#fff"/>
    </g>
    <g transform="translate(328.43 319.51)">
     <path d="m0 0c-0.459 1.415-1.077 2.506-1.855 3.274-0.78 0.77-1.651 1.155-2.616 1.155-1.051 0-1.923-0.467-2.614-1.396-0.694-0.93-1.04-2.091-1.04-3.479 0-0.349 0.015-0.693 0.046-1.034s0.078-0.678 0.141-1.013zm2.222-1.433-9.533-3.095c0.497-1.529 1.239-2.694 2.229-3.493 0.988-0.802 2.183-1.202 3.583-1.202 0.964 0 1.877 0.181 2.737 0.545 0.86 0.363 1.674 0.907 2.441 1.633l1.138-1.182c-1.127-1.46-2.442-2.581-3.948-3.36-1.506-0.78-3.105-1.17-4.803-1.17-2.489 0-4.528 0.9-6.121 2.697-1.591 1.798-2.386 4.087-2.386 6.864 0 2.779 0.879 5.107 2.637 6.984 1.759 1.88 3.897 2.819 6.41 2.819 1.177 0 2.276-0.25 3.298-0.746 1.021-0.495 1.941-1.227 2.758-2.196 0.569-0.695 1.06-1.486 1.469-2.374 0.408-0.886 0.613-1.478 0.613-1.776 0-0.186-0.38-0.378-1.14-0.576-0.548-0.136-1.008-0.26-1.382-0.372" fill="#fff"/>
    </g>
    <g transform="translate(346.63 326.21)">
     <path d="m0 0 1.48-0.651-2.238-4.946c-0.656 0.433-1.204 0.728-1.643 0.888s-0.881 0.242-1.327 0.242c-0.717 0-1.294-0.276-1.734-0.826-0.438-0.55-0.657-1.311-0.657-2.287v-9.523h2.178v-1.837h-8.519v1.837h1.693v11.005c-0.013 0.556-0.065 0.917-0.158 1.082-0.093 0.167-0.271 0.326-0.53 0.474l-0.802-0.834-1.269 1.151 3.245 4.114c0.996-0.522 1.761-1.046 2.303-1.574 0.542-0.527 0.937-1.138 1.187-1.832 0.667 1.253 1.274 2.133 1.818 2.643 0.545 0.508 1.126 0.763 1.746 0.763 0.346 0 0.745-0.075 1.197-0.223 0.452-0.149 0.925-0.368 1.421-0.651z" fill="#fff"/>
    </g>
    <g transform="translate(359.94 324.27)">
     <path d="m0 0-2.032-3.05c-1.005 0.947-1.901 1.636-2.682 2.068-0.783 0.429-1.54 0.644-2.272 0.644-0.547 0-1.004-0.165-1.371-0.49-0.366-0.328-0.548-0.733-0.548-1.214 0-0.976 1.509-2.131 4.526-3.464 0.063-0.025 0.119-0.049 0.17-0.073 1.896-0.842 3.162-1.663 3.795-2.461 0.632-0.8 0.948-1.843 0.948-3.13 0-1.771-0.715-3.272-2.14-4.506-1.428-1.232-3.188-1.847-5.285-1.847-1.29 0-2.535 0.241-3.73 0.718-1.197 0.478-2.255 1.159-3.174 2.04l2.505 3.438c1.217-1.315 2.314-2.273 3.29-2.874 0.976-0.6 1.919-0.902 2.826-0.902 0.683 0 1.247 0.207 1.695 0.624 0.449 0.415 0.673 0.945 0.673 1.589 0 0.967-1.167 2.001-3.499 3.106-0.138 0.063-0.231 0.106-0.281 0.131-2.439 1.176-3.984 2.171-4.636 2.981-0.651 0.81-0.975 1.821-0.975 3.034 0 1.574 0.601 2.878 1.803 3.919 1.204 1.039 2.734 1.56 4.593 1.56 1.006 0 1.981-0.154 2.929-0.455 0.949-0.307 1.906-0.767 2.872-1.386" fill="#fff"/>
    </g>
    <g transform="translate(362.44 329.94)">
     <path d="m0 0c0 0.703 0.26 1.314 0.778 1.834 0.52 0.517 1.143 0.776 1.87 0.776 0.741 0 1.364-0.253 1.871-0.758 0.504-0.506 0.759-1.123 0.759-1.852 0-0.728-0.259-1.354-0.778-1.88-0.519-0.524-1.136-0.786-1.852-0.786-0.704 0-1.32 0.27-1.851 0.807-0.53 0.536-0.797 1.156-0.797 1.859m5.072-3.827h0.206c-0.055-0.52-0.092-1.003-0.114-1.452-0.021-0.45-0.031-0.867-0.031-1.248v-14.291h1.742v-1.841h-8.085v1.841h1.695v13.773l-1.695-0.461v1.773z" fill="#fff"/>
    </g>
    <g transform="translate(383.25 319.87)">
     <path d="m0 0c0 1.307-0.34 2.328-1.02 3.062s-1.621 1.101-2.819 1.101c-1.286 0-2.354-0.62-3.208-1.859-0.852-1.241-1.28-2.84-1.28-4.802 0-2.183 0.47-3.975 1.41-5.374 0.938-1.402 2.12-2.1 3.543-2.1 0.603 0 1.207 0.15 1.808 0.452 0.598 0.302 1.121 0.718 1.566 1.249zm6.268 13.699v-1.887l-1.621-0.582v-21.976h1.694v-1.841h-5.97l-0.371 2.161c-0.893-0.886-1.821-1.555-2.788-2.011-0.966-0.454-1.928-0.682-2.881-0.682-2.155 0-3.911 0.829-5.269 2.488-1.357 1.657-2.036 3.824-2.036 6.497 0 2.959 0.839 5.428 2.518 7.407 1.681 1.981 3.703 2.972 6.07 2.972 0.805 0 1.567-0.117 2.286-0.348 0.718-0.231 1.417-0.578 2.1-1.04v4.836l-1.693-0.581v1.931z" fill="#fff"/>
    </g>
    <g transform="translate(402.04 317.39)">
     <path d="m0 0c-0.286 0.049-0.568 0.082-0.846 0.102-0.278 0.017-0.591 0.028-0.939 0.028-1.549 0-2.801-0.394-3.756-1.176-0.954-0.785-1.43-1.808-1.43-3.062 0-1.073 0.323-1.941 0.967-2.606 0.645-0.665 1.48-0.999 2.51-0.999 1.102 0 1.96 0.355 2.574 1.065 0.613 0.71 0.92 1.716 0.92 3.024zm-7.624 9.105 1.639-0.482-0.335-1.301c0.803 0.46 1.597 0.803 2.378 1.032 0.78 0.229 1.561 0.343 2.342 0.343 2.082 0 3.644-0.526 4.685-1.58 1.04-1.052 1.561-2.633 1.561-4.741v-10.67h1.695v-1.839h-5.914l-0.427 2.104c-0.821-0.879-1.688-1.538-2.607-1.978-0.92-0.438-1.895-0.658-2.925-0.658-1.689 0-3.102 0.575-4.238 1.728-1.134 1.155-1.703 2.575-1.703 4.262 0 2.119 0.788 3.742 2.365 4.864 1.578 1.123 3.848 1.684 6.817 1.684 0.386 0 0.768-0.012 1.145-0.029 0.379-0.017 0.76-0.045 1.146-0.082v1.304c0 0.918-0.268 1.635-0.802 2.15-0.531 0.514-1.282 0.77-2.248 0.77-0.942 0-1.81-0.26-2.605-0.781-0.792-0.52-1.461-1.275-2.008-2.268l-1.755 0.608z" fill="#fff"/>
    </g>
    <g transform="translate(422.23 319.87)">
     <path d="m0 0c0 1.307-0.341 2.328-1.021 3.062s-1.62 1.101-2.817 1.101c-1.287 0-2.355-0.62-3.21-1.859-0.852-1.241-1.278-2.84-1.278-4.802 0-2.183 0.47-3.975 1.409-5.374 0.938-1.402 2.119-2.1 3.542-2.1 0.605 0 1.207 0.15 1.808 0.452 0.598 0.302 1.121 0.718 1.567 1.249zm6.269 13.699v-1.887l-1.622-0.582v-21.976h1.695v-1.841h-5.969l-0.373 2.161c-0.894-0.886-1.822-1.555-2.788-2.011-0.967-0.454-1.928-0.682-2.882-0.682-2.155 0-3.911 0.829-5.268 2.488-1.357 1.657-2.037 3.824-2.037 6.497 0 2.959 0.839 5.428 2.52 7.407 1.679 1.981 3.701 2.972 6.069 2.972 0.804 0 1.568-0.117 2.285-0.348 0.718-0.231 1.417-0.578 2.101-1.04v4.836l-1.694-0.581v1.931z" fill="#fff"/>
    </g>
    <g transform="translate(275.38 301.16)">
     <path d="m0 0v-10.67c0-1.363 0.229-2.33 0.688-2.901 0.458-0.569 1.224-0.853 2.291-0.853 1.553 0 2.792 0.613 3.716 1.84 0.926 1.228 1.389 2.88 1.389 4.963 0 2.404-0.605 4.274-1.814 5.613-1.211 1.34-2.908 2.008-5.091 2.008zm-7.456 2.374h9.647c3.623 0 6.449-0.834 8.472-2.502s3.036-3.982 3.036-6.944c0-2.741-0.927-5.006-2.779-6.795-1.85-1.792-4.168-2.687-6.95-2.687-0.758 0-1.467 0.054-2.125 0.165-0.659 0.113-1.274 0.285-1.845 0.52v-5.527h2.565v-2.178h-10.021v2.178h2.179v21.59h-2.179z" fill="#fff"/>
    </g>
    <g transform="translate(293.55 288.15)">
     <path d="m0 0c0-2.493 0.577-4.62 1.734-6.378s2.529-2.639 4.112-2.639c1.36 0 2.437 0.547 3.228 1.638 0.791 1.093 1.188 2.597 1.188 4.51 0 2.517-0.584 4.656-1.754 6.415-1.169 1.759-2.565 2.639-4.185 2.639-1.309 0-2.36-0.557-3.145-1.666-0.784-1.111-1.178-2.619-1.178-4.519m5.123-11.098c-2.88 0-5.269 0.912-7.165 2.738-1.899 1.827-2.847 4.136-2.847 6.936 0 2.794 0.948 5.111 2.847 6.942 1.896 1.831 4.285 2.747 7.165 2.747 2.889 0 5.282-0.916 7.181-2.747s2.847-4.148 2.847-6.942c0-2.81-0.948-5.126-2.847-6.944-1.899-1.821-4.292-2.73-7.181-2.73" fill="#fff"/>
    </g>
    <g transform="translate(311.46 279.42)">
     <path d="m0 0v13.737l-1.695-0.463v1.797l6.157 1.825h0.224l-0.04-3.083c1.298 1.071 2.5 1.869 3.605 2.393 1.106 0.523 2.136 0.785 3.089 0.785 1.605 0 2.884-0.5 3.837-1.499 0.951-0.999 1.426-2.357 1.426-4.07v-11.422h1.695v-1.839h-8.084v1.839h1.743v10.85c0 0.925-0.235 1.631-0.702 2.119-0.468 0.486-1.146 0.731-2.031 0.731-0.726 0-1.492-0.184-2.299-0.555-0.806-0.372-1.565-0.884-2.279-1.536v-11.609h1.744v-1.839h-8.085v1.839z" fill="#fff"/>
    </g>
    <g transform="translate(336.23 300.1)">
     <path d="m0 0 1.286-0.298v-4.108h3.63l-0.241-1.524c-0.051-0.322-0.131-0.536-0.242-0.642-0.113-0.104-0.348-0.157-0.708-0.157h-2.439v-10.858c0-0.939 0.139-1.614 0.419-2.028 0.279-0.413 0.723-0.619 1.331-0.619 0.273 0 0.549 0.047 0.827 0.147 0.282 0.098 0.618 0.277 1.017 0.537l0.81-1.191c-0.795-0.763-1.63-1.335-2.507-1.722-0.877-0.386-1.777-0.58-2.695-0.58-1.367 0-2.359 0.36-2.975 1.082-0.616 0.719-0.922 1.889-0.922 3.505v11.727h-1.937v1.487c1.341 0.557 2.455 1.272 3.343 2.146 0.888 0.873 1.555 1.906 2.003 3.096" fill="#fff"/>
    </g>
    <g transform="translate(343.3 300.24)">
     <path d="m0 0c0 0.704 0.258 1.315 0.777 1.834 0.519 0.517 1.142 0.777 1.871 0.777 0.741 0 1.363-0.254 1.87-0.759 0.505-0.505 0.758-1.125 0.758-1.852s-0.259-1.354-0.776-1.878c-0.521-0.525-1.138-0.787-1.852-0.787-0.703 0-1.321 0.269-1.851 0.805-0.532 0.537-0.797 1.157-0.797 1.86m5.072-3.828h0.204c-0.053-0.519-0.09-1.003-0.112-1.451-0.021-0.451-0.033-0.866-0.033-1.249v-14.291h1.742v-1.839h-8.083v1.839h1.695v13.775l-1.695-0.462v1.775z" fill="#fff"/>
    </g>
    <g transform="translate(351.76 277.58)">
     <path d="m0 0v1.839h1.695v13.555h-2.467l0.846 2.373h1.879c-0.377 0.493-0.658 0.978-0.847 1.456-0.188 0.476-0.282 0.955-0.282 1.438 0 1.422 0.7 2.74 2.104 3.952 1.4 1.212 2.914 1.817 4.541 1.817 0.83 0 1.605-0.154 2.326-0.462 0.72-0.309 1.328-0.745 1.824-1.313l-2.915-2.435c-0.564 0.744-1.031 1.253-1.399 1.526-0.371 0.273-0.749 0.41-1.138 0.41-0.576 0-1.047-0.21-1.409-0.623-0.364-0.414-0.545-0.95-0.545-1.606 0-1.153 0.432-2.133 1.297-2.944 0.862-0.811 1.927-1.216 3.194-1.216h1.753l-0.886-2.373h-3.23v-13.555h2.567v-1.839z" fill="#fff"/>
    </g>
    <g transform="translate(363.37 300.24)">
     <path d="m0 0c0 0.704 0.259 1.315 0.777 1.834 0.519 0.517 1.142 0.777 1.869 0.777 0.742 0 1.365-0.254 1.873-0.759 0.505-0.505 0.757-1.125 0.757-1.852s-0.258-1.354-0.778-1.878c-0.519-0.525-1.135-0.787-1.852-0.787-0.703 0-1.32 0.269-1.849 0.805-0.532 0.537-0.797 1.157-0.797 1.86m5.072-3.828h0.204c-0.053-0.519-0.092-1.003-0.113-1.451-0.021-0.451-0.031-0.866-0.031-1.249v-14.291h1.742v-1.839h-8.084v1.839h1.693v13.775l-1.693-0.462v1.775z" fill="#fff"/>
    </g>
    <g transform="translate(387.81 293)">
     <path d="m0 0-3.323-3.069c-0.596 1.44-1.28 2.508-2.049 3.21-0.771 0.7-1.651 1.049-2.645 1.049-1.253 0-2.297-0.532-3.129-1.595-0.832-1.067-1.247-2.435-1.247-4.105 0-2.178 0.634-4.072 1.9-5.681 1.265-1.611 2.731-2.414 4.394-2.414 0.907 0 1.768 0.214 2.579 0.644 0.813 0.431 1.569 1.071 2.263 1.921l1.063-0.916c-0.844-1.559-1.964-2.78-3.361-3.664-1.396-0.884-2.907-1.325-4.534-1.325-2.557 0-4.623 0.825-6.199 2.478-1.576 1.651-2.364 3.81-2.364 6.469 0 2.859 0.951 5.311 2.855 7.352 1.903 2.042 4.165 3.063 6.782 3.063 1.376 0 2.648-0.284 3.814-0.85 1.166-0.567 2.232-1.421 3.201-2.567" fill="#fff"/>
    </g>
    <g transform="translate(389.81 300.24)">
     <path d="m0 0c0 0.704 0.26 1.315 0.777 1.834 0.52 0.517 1.143 0.777 1.87 0.777 0.741 0 1.365-0.254 1.871-0.759 0.504-0.505 0.759-1.125 0.759-1.852s-0.258-1.354-0.778-1.878c-0.519-0.525-1.135-0.787-1.852-0.787-0.703 0-1.321 0.269-1.851 0.805-0.53 0.537-0.796 1.157-0.796 1.86m5.071-3.828h0.206c-0.054-0.519-0.092-1.003-0.114-1.451-0.02-0.451-0.031-0.866-0.031-1.249v-14.291h1.743v-1.839h-8.084v1.839h1.693v13.775l-1.693-0.462v1.775z" fill="#fff"/>
    </g>
    <g transform="translate(409.12 287.69)">
     <path d="m0 0c-0.286 0.05-0.568 0.083-0.847 0.104-0.279 0.018-0.592 0.027-0.938 0.027-1.55 0-2.802-0.393-3.755-1.177-0.955-0.784-1.432-1.805-1.432-3.06 0-1.074 0.323-1.941 0.966-2.606 0.645-0.667 1.482-0.998 2.51-0.998 1.102 0 1.961 0.355 2.574 1.064s0.922 1.717 0.922 3.024zm-7.626 9.107 1.64-0.482-0.336-1.299c0.805 0.456 1.598 0.801 2.379 1.028 0.781 0.23 1.562 0.345 2.342 0.345 2.082 0 3.645-0.527 4.684-1.581 1.043-1.051 1.563-2.633 1.563-4.74v-10.67h1.694v-1.84h-5.914l-0.426 2.104c-0.821-0.879-1.69-1.537-2.608-1.977-0.919-0.439-1.895-0.659-2.924-0.659-1.691 0-3.102 0.576-4.238 1.73-1.136 1.153-1.704 2.574-1.704 4.259 0 2.122 0.787 3.742 2.366 4.864 1.576 1.123 3.848 1.684 6.815 1.684 0.386 0 0.768-9e-3 1.146-0.027s0.76-0.045 1.147-0.083v1.304c0 0.92-0.268 1.635-0.801 2.15-0.534 0.514-1.284 0.771-2.25 0.771-0.943 0-1.811-0.261-2.603-0.782-0.795-0.52-1.464-1.275-2.009-2.268l-1.756 0.607z" fill="#fff"/>
    </g>
    <g transform="translate(253.72 262.38)">
     <path d="m0 0v-12.102h1.849c2.094 0 3.665 0.501 4.712 1.505 1.048 1.005 1.571 2.51 1.571 4.519 0 1.944-0.518 3.445-1.552 4.497-1.035 1.054-2.513 1.581-4.435 1.581zm0 2.42h1.664c1.306 0 2.306 0.287 3.004 0.859 0.696 0.573 1.044 1.396 1.044 2.467 0 1.083-0.37 1.905-1.109 2.465-0.74 0.56-1.824 0.843-3.254 0.843h-1.349zm5.897-0.919c2.355-0.248 4.195-1.041 5.523-2.373 1.326-1.336 1.988-3.069 1.988-5.204 0-2.509-0.851-4.535-2.553-6.081-1.703-1.546-3.935-2.317-6.695-2.317h-11.47v2.177h2.178v21.592h-2.178v2.177h10.101c2.604 0 4.556-0.446 5.856-1.336 1.303-0.893 1.954-2.222 1.954-3.992 0-1.14-0.416-2.124-1.251-2.953-0.832-0.83-1.985-1.392-3.453-1.69" fill="#fff"/>
    </g>
    <g transform="translate(272.26 258.47)">
     <path d="m0 0c0-2.494 0.578-4.619 1.736-6.378 1.157-1.761 2.527-2.639 4.111-2.639 1.359 0 2.435 0.545 3.228 1.638 0.792 1.092 1.188 2.594 1.188 4.508 0 2.517-0.586 4.656-1.754 6.416-1.169 1.759-2.564 2.64-4.184 2.64-1.312 0-2.361-0.557-3.146-1.668-0.786-1.112-1.179-2.617-1.179-4.517m5.123-11.098c-2.879 0-5.267 0.912-7.165 2.738-1.898 1.825-2.846 4.136-2.846 6.936 0 2.796 0.948 5.11 2.846 6.942 1.898 1.831 4.286 2.747 7.165 2.747 2.888 0 5.284-0.916 7.183-2.747 1.897-1.832 2.846-4.146 2.846-6.942 0-2.812-0.949-5.128-2.846-6.946-1.899-1.819-4.295-2.728-7.183-2.728" fill="#fff"/>
    </g>
    <g transform="translate(296.33 274.19)">
     <path d="m0 0v-1.889l-1.656-0.575v-21.983h1.693v-1.839h-8.034v1.839h1.692v20.458l-1.692-0.577v1.914z" fill="#fff"/>
    </g>
    <g transform="translate(299.17 270.57)">
     <path d="m0 0c0 0.703 0.258 1.312 0.776 1.832 0.52 0.52 1.143 0.779 1.87 0.779 0.741 0 1.364-0.254 1.872-0.76 0.505-0.506 0.758-1.122 0.758-1.851s-0.259-1.354-0.777-1.878c-0.52-0.526-1.137-0.787-1.853-0.787-0.704 0-1.32 0.268-1.85 0.805-0.531 0.537-0.796 1.157-0.796 1.86m5.072-3.828h0.204c-0.054-0.519-0.091-1.003-0.114-1.451-0.019-0.45-0.031-0.866-0.031-1.248v-14.292h1.742v-1.839h-8.084v1.839h1.695v13.775l-1.695-0.465v1.777z" fill="#fff"/>
    </g>
    <g transform="translate(321.52 262.95)">
     <path d="m0 0c-0.197-0.146-0.403-0.252-0.613-0.319-0.211-0.067-0.477-0.101-0.798-0.101-0.386 0-1.046 0.137-1.987 0.411-0.942 0.274-1.623 0.41-2.043 0.41-0.544 0-1.075-0.148-1.589-0.45s-1.011-0.756-1.494-1.357l3.989-9.448zm-10.339 3.791c0.11-0.595 0.272-1.208 0.48-1.839 0.211-0.634 0.463-1.282 0.759-1.952 1.077 1.41 1.994 2.379 2.748 2.905 0.758 0.527 1.569 0.789 2.435 0.789 0.582 0 1.399-0.121 2.452-0.363 1.054-0.242 1.809-0.362 2.268-0.362 0.321 0 0.625 0.044 0.91 0.132 0.283 0.088 0.611 0.244 0.983 0.469l0.8-0.771c-0.31-0.514-0.707-1.331-1.189-2.457-0.088-0.237-0.156-0.413-0.203-0.525l-5.005-11.919c-0.199-0.506-0.373-1.002-0.522-1.477-0.148-0.478-0.278-0.965-0.39-1.46h-3.727c-0.149 0.594-0.44 1.381-0.873 2.361-0.051 0.124-0.087 0.211-0.111 0.26l-5.467 12.454-1.519-0.641-0.648 1.443z" fill="#fff"/>
    </g>
    <g transform="translate(335.96 258.02)">
     <path d="m0 0c-0.285 0.05-0.567 0.083-0.847 0.102-0.278 0.02-0.591 0.029-0.937 0.029-1.551 0-2.802-0.393-3.756-1.177s-1.431-1.806-1.431-3.062c0-1.072 0.322-1.939 0.966-2.604 0.645-0.667 1.481-0.998 2.511-0.998 1.102 0 1.959 0.354 2.573 1.064 0.612 0.709 0.921 1.717 0.921 3.024zm-7.625 9.107 1.64-0.482-0.336-1.3c0.805 0.457 1.598 0.802 2.38 1.029 0.78 0.229 1.561 0.345 2.34 0.345 2.082 0 3.645-0.528 4.687-1.581 1.04-1.054 1.56-2.633 1.56-4.74v-10.67h1.696v-1.84h-5.914l-0.428 2.103c-0.82-0.878-1.689-1.536-2.606-1.978-0.92-0.438-1.895-0.657-2.926-0.657-1.689 0-3.101 0.576-4.237 1.729-1.135 1.154-1.705 2.573-1.705 4.26 0 2.121 0.788 3.742 2.366 4.864 1.576 1.123 3.848 1.684 6.816 1.684 0.386 0 0.767-9e-3 1.147-0.029 0.378-0.017 0.76-0.045 1.145-0.081v1.303c0 0.918-0.267 1.636-0.801 2.151-0.533 0.513-1.282 0.771-2.25 0.771-0.941 0-1.81-0.261-2.603-0.782-0.793-0.52-1.463-1.276-2.008-2.269l-1.756 0.607z" fill="#fff"/>
    </g>
    <g transform="translate(356.27 266.84)">
     <path d="m0 0 1.479-0.651-2.237-4.946c-0.656 0.432-1.204 0.728-1.642 0.887-0.438 0.162-0.882 0.242-1.326 0.242-0.717 0-1.296-0.276-1.735-0.823-0.439-0.551-0.658-1.314-0.658-2.29v-9.521h2.178v-1.839h-8.52v1.839h1.694v11.003c-0.012 0.556-0.065 0.918-0.158 1.084-0.093 0.167-0.269 0.326-0.53 0.474l-0.8-0.834-1.27 1.149 3.245 4.116c0.995-0.523 1.763-1.048 2.304-1.576 0.542-0.526 0.937-1.137 1.185-1.832 0.669 1.253 1.274 2.133 1.818 2.643 0.545 0.508 1.128 0.765 1.746 0.765 0.346 0 0.747-0.076 1.197-0.225 0.452-0.149 0.925-0.365 1.42-0.651z" fill="#fff"/>
    </g>
    <g transform="translate(358.69 270.57)">
     <path d="m0 0c0 0.703 0.258 1.312 0.777 1.832s1.142 0.779 1.869 0.779c0.742 0 1.365-0.254 1.87-0.76 0.507-0.506 0.76-1.122 0.76-1.851s-0.259-1.354-0.778-1.878c-0.519-0.526-1.136-0.787-1.852-0.787-0.703 0-1.319 0.268-1.851 0.805-0.53 0.537-0.795 1.157-0.795 1.86m5.072-3.828h0.204c-0.053-0.519-0.093-1.003-0.114-1.451-0.021-0.45-0.031-0.866-0.031-1.248v-14.292h1.742v-1.839h-8.083v1.839h1.693v13.775l-1.693-0.465v1.777z" fill="#fff"/>
    </g>
    <g transform="translate(378 258.02)">
     <path d="m0 0c-0.286 0.05-0.568 0.083-0.847 0.102-0.279 0.02-0.592 0.029-0.938 0.029-1.55 0-2.801-0.393-3.756-1.177-0.954-0.784-1.431-1.806-1.431-3.062 0-1.072 0.322-1.939 0.966-2.604 0.645-0.667 1.482-0.998 2.51-0.998 1.102 0 1.96 0.354 2.574 1.064 0.613 0.709 0.922 1.717 0.922 3.024zm-7.625 9.107 1.639-0.482-0.336-1.3c0.806 0.457 1.599 0.802 2.379 1.029 0.781 0.229 1.563 0.345 2.342 0.345 2.081 0 3.645-0.528 4.686-1.581 1.041-1.054 1.561-2.633 1.561-4.74v-10.67h1.696v-1.84h-5.916l-0.426 2.103c-0.82-0.878-1.69-1.536-2.609-1.978-0.918-0.438-1.894-0.657-2.923-0.657-1.689 0-3.102 0.576-4.238 1.729-1.136 1.154-1.704 2.573-1.704 4.26 0 2.121 0.787 3.742 2.366 4.864 1.576 1.123 3.848 1.684 6.816 1.684 0.385 0 0.767-9e-3 1.146-0.029 0.377-0.017 0.759-0.045 1.146-0.081v1.303c0 0.918-0.268 1.636-0.802 2.151-0.533 0.513-1.283 0.771-2.249 0.771-0.943 0-1.81-0.261-2.603-0.782-0.795-0.52-1.464-1.276-2.009-2.269l-1.755 0.607z" fill="#fff"/>
    </g>
    <g transform="translate(387.54 249.75)">
     <path d="m0 0v13.737l-1.694-0.463v1.798l6.155 1.823h0.224l-0.038-3.082c1.297 1.071 2.499 1.869 3.604 2.393 1.106 0.524 2.136 0.785 3.089 0.785 1.606 0 2.886-0.5 3.837-1.5 0.951-0.999 1.427-2.356 1.427-4.069v-11.422h1.694v-1.839h-8.084v1.839h1.742v10.848c0 0.927-0.235 1.633-0.701 2.121-0.469 0.486-1.146 0.732-2.03 0.732-0.728 0-1.493-0.187-2.3-0.556-0.806-0.372-1.565-0.884-2.278-1.538v-11.607h1.743v-1.839h-8.084v1.839z" fill="#fff"/>
    </g>
    <g transform="translate(418.24 258.02)">
     <path d="m0 0c-0.285 0.05-0.567 0.083-0.846 0.102-0.279 0.02-0.592 0.029-0.938 0.029-1.548 0-2.802-0.393-3.755-1.177-0.955-0.784-1.432-1.806-1.432-3.062 0-1.072 0.323-1.939 0.966-2.604 0.645-0.667 1.482-0.998 2.511-0.998 1.103 0 1.961 0.354 2.574 1.064 0.614 0.709 0.92 1.717 0.92 3.024zm-7.625 9.107 1.64-0.482-0.334-1.3c0.803 0.457 1.596 0.802 2.378 1.029 0.78 0.229 1.561 0.345 2.343 0.345 2.081 0 3.643-0.528 4.684-1.581 1.041-1.054 1.561-2.633 1.561-4.74v-10.67h1.695v-1.84h-5.914l-0.428 2.103c-0.82-0.878-1.689-1.536-2.606-1.978-0.92-0.438-1.894-0.657-2.925-0.657-1.69 0-3.102 0.576-4.238 1.729-1.136 1.154-1.704 2.573-1.704 4.26 0 2.121 0.789 3.742 2.366 4.864 1.575 1.123 3.848 1.684 6.815 1.684 0.386 0 0.769-9e-3 1.147-0.029 0.379-0.017 0.76-0.045 1.145-0.081v1.303c0 0.918-0.267 1.636-0.8 2.151-0.534 0.513-1.283 0.771-2.25 0.771-0.941 0-1.811-0.261-2.603-0.782-0.793-0.52-1.462-1.276-2.009-2.269l-1.756 0.607z" fill="#fff"/>
    </g>
    <g transform="translate(200.92 284.63)">
     <path d="m0 0c-0.47 0.212-1.052 0.316-1.746 0.316-0.3 0-0.557-5e-3 -0.771-0.014-0.212-0.011-0.384-0.028-0.516-0.052v-4.21c0.565-0.136 1.123-0.203 1.673-0.203 0.881 0 1.554 0.205 2.017 0.615 0.461 0.412 0.693 0.922 0.693 1.526 0 0.399-0.108 0.782-0.323 1.151-0.215 0.368-0.557 0.659-1.027 0.871" fill="#fff" fill-rule="evenodd"/>
    </g>
    <g transform="translate(199.26 285.49)">
     <path d="m0 0c0.708 0 1.241 0.08 1.596 0.238 0.357 0.158 0.629 0.402 0.818 0.728 0.19 0.326 0.284 0.683 0.284 1.068 0 0.599-0.235 1.11-0.705 1.53-0.471 0.422-1.156 0.634-2.059 0.634-0.484 0-0.92-0.055-1.309-0.166v-3.927c0.181-0.034 0.385-0.061 0.616-0.078 0.229-0.017 0.482-0.027 0.759-0.027" fill="#fff" fill-rule="evenodd"/>
    </g>
    <g transform="translate(187.88 289.3)">
     <path d="m0 0c-0.347 0.189-0.739 0.285-1.18 0.285-0.266 0-0.609-0.048-1.028-0.145v-4.285c0.277-0.051 0.522-0.088 0.737-0.112 0.216-0.027 0.399-0.04 0.551-0.04 0.545 0 1.015 0.204 1.411 0.612 0.396 0.409 0.593 0.936 0.593 1.584 0 0.446-0.093 0.86-0.282 1.243-0.188 0.381-0.456 0.668-0.802 0.858" fill="#fff" fill-rule="evenodd"/>
    </g>
    <g transform="translate(171.71 314.39)">
     <path d="m0 0h3.585l-1.755 4.203z" fill="#fff" fill-rule="evenodd"/>
    </g>
    <g transform="translate(203.47 281.26)">
     <path d="m0 0c-0.31-0.469-0.733-0.811-1.275-1.026-0.539-0.214-1.364-0.323-2.472-0.323h-4.649v0.283h0.369c0.408 0 0.703 0.137 0.88 0.409 0.11 0.175 0.167 0.551 0.167 1.126v6.639c0 0.633-0.071 1.035-0.21 1.202-0.187 0.22-0.467 0.332-0.837 0.332h-0.369v0.283h4.252c0.795 0 1.429-0.062 1.909-0.182 0.726-0.181 1.28-0.501 1.661-0.964 0.383-0.461 0.574-0.991 0.574-1.591 0-0.513-0.149-0.973-0.449-1.378-0.3-0.407-0.741-0.708-1.325-0.904 0.683-0.152 1.195-0.395 1.535-0.728 0.47-0.467 0.705-1.035 0.705-1.709 0-0.512-0.156-1-0.466-1.469m-12.024 31.586h0.309c0-0.315 0.158-0.627 0.315-0.627 0.152-0.31 0.464-0.31 0.932-0.31h2.022v0.47c-1.088 0.31-1.867 0.932-2.336 1.553-0.618 0.776-0.933 1.708-0.933 2.644 0 1.247 0.467 2.333 1.402 3.271 0.934 0.928 2.18 1.242 3.73 1.242 1.091 0 2.022-0.156 2.806-0.469 0.774-0.462 1.395-0.933 1.862-1.711 0.468-0.622 0.624-1.399 0.624-2.333 0-0.936-0.309-1.868-0.779-2.644-0.62-0.776-1.555-1.243-2.491-1.553v-0.47h2.026c0.465 0 0.778 0 0.935 0.156 0.153 0.154 0.309 0.466 0.309 0.781h0.31v-2.18h-4.197l0.152 2.18c0.626 0.149 1.249 0.619 1.559 1.242 0.309 0.465 0.464 1.242 0.464 2.333 0 1.246-0.31 2.33-0.932 3.111-0.776 0.781-1.557 1.088-2.648 1.088-0.932 0-1.708-0.307-2.33-1.088-0.781-0.781-1.091-1.865-1.091-3.111 0-0.932 0.158-1.713 0.47-2.333 0.466-0.623 0.932-1.093 1.555-1.242l0.309-2.18h-4.354zm-4.826-18.358c-2.33 0-4.353 1.71-4.353 3.731 0 2.957 4.668 3.115 2.493 7.003-0.936 1.246 6.064-2.957 6.064-7.003 0-2.021-1.87-3.731-4.204-3.731m3.306-9.187c-0.578-0.525-1.394-0.787-2.449-0.787-0.258 0-0.538 0.017-0.839 0.051-0.301 0.035-0.623 0.088-0.965 0.156v-2.992c0-0.645 0.073-1.046 0.222-1.202 0.201-0.222 0.507-0.333 0.914-0.333h0.414v-0.283h-4.632v0.283h0.408c0.458 0 0.786 0.141 0.985 0.424 0.105 0.155 0.158 0.527 0.158 1.111v6.639c0 0.645-0.071 1.046-0.215 1.202-0.209 0.22-0.518 0.332-0.928 0.332h-0.408v0.283h3.947c0.963 0 1.722-0.095 2.278-0.284 0.557-0.19 1.024-0.51 1.406-0.958 0.38-0.45 0.571-0.982 0.571-1.598 0-0.839-0.29-1.52-0.867-2.044m-10.422 25.032h-4.109v0.287c0.415 0.02 0.695 0.089 0.841 0.207s0.218 0.259 0.218 0.429c0 0.225-0.102 0.581-0.306 1.066l-0.62 1.489h-4.074l-0.713-1.637c-0.174-0.403-0.261-0.704-0.261-0.904 0-0.158 0.076-0.297 0.228-0.415 0.151-0.122 0.475-0.199 0.977-0.235v-0.287h-3.278v0.287c0.435 0.077 0.716 0.178 0.843 0.299 0.261 0.248 0.55 0.75 0.867 1.507l3.721 8.543h0.247l3.631-8.649c0.292-0.695 0.558-1.146 0.796-1.353 0.237-0.205 0.567-0.322 0.992-0.347zm-1.294-20.431h-0.397c-0.414 0-0.733-0.169-0.955-0.506-0.109-0.156-0.163-0.52-0.163-1.089v-4.157c0-1.028-0.106-1.826-0.317-2.392-0.21-0.567-0.622-1.053-1.238-1.46-0.616-0.404-1.454-0.608-2.516-0.608-1.154 0-2.029 0.195-2.628 0.583-0.597 0.387-1.02 0.908-1.271 1.563-0.165 0.449-0.248 1.292-0.248 2.528v4.004c0 0.629-0.089 1.043-0.264 1.24-0.179 0.196-0.463 0.294-0.86 0.294h-0.391v0.283h4.524v-0.283h-0.4c-0.43 0-0.739-0.134-0.923-0.4-0.13-0.181-0.192-0.56-0.192-1.134v-4.471c0-0.397 0.038-0.854 0.115-1.367 0.074-0.515 0.211-0.916 0.408-1.204 0.2-0.288 0.485-0.524 0.858-0.712 0.372-0.185 0.831-0.279 1.372-0.279 0.695 0 1.314 0.147 1.862 0.44 0.547 0.292 0.922 0.665 1.123 1.123 0.2 0.456 0.301 1.228 0.301 2.317v4.153c0 0.64-0.073 1.04-0.219 1.202-0.201 0.22-0.501 0.332-0.899 0.332h-0.397v0.283h3.715zm-14.767 36.785v-49.307c0-2.18 2.644-4.359 4.826-4.359h14.618c1.094 0 2.648-1.552 2.648-2.178 0 0.626 1.4 2.178 2.643 2.178h14.468c2.8 0 4.821 2.179 4.821 4.359v49.307z" fill="#fff" fill-rule="evenodd"/>
    </g>
   </g>
  </g>
 </g>
</svg>
